<svg xmlns="http://www.w3.org/2000/svg" viewBox="0 0 280.03 280.03"><defs><style>.cls-1{fill:#b7b6b6;}.cls-2{fill:#bbb;}.cls-3{fill:#c2c2c2;}.cls-4{fill:#c8c8c8;}.cls-5{fill:#cdcdcd;}.cls-6{fill:#d1d1d1;}.cls-7{fill:#949494;}.cls-8{fill:#999;}.cls-9{fill:#9d9d9d;}.cls-10{fill:#a3a3a3;}.cls-11{fill:#a9a9a9;}.cls-12{fill:#afafaf;}</style></defs><title>loading</title><g id="图层_2" data-name="图层 2"><rect class="cls-1" x="219.71" y="133.7" width="54" height="12.63"/><circle class="cls-1" cx="273.71" cy="140.01" r="6.32"/><circle class="cls-1" cx="219.71" cy="140.01" r="6.32"/><rect class="cls-2" x="215.1" y="91.8" width="54" height="12.63" transform="translate(-26.31 122.74) rotate(-30)"/><circle class="cls-2" cx="255.8" cy="73.16" r="6.32"/><circle class="cls-2" cx="209.03" cy="100.16" r="6.32"/><rect class="cls-3" x="176.04" y="52.75" width="54" height="12.63" transform="translate(40.69 193.92) rotate(-60)"/><circle class="cls-3" cx="206.86" cy="24.23" r="6.32"/><circle class="cls-3" cx="179.86" cy="70.99" r="6.32"/><rect class="cls-4" x="122.69" y="38.45" width="54" height="12.63" transform="translate(95.24 183.01) rotate(-90)"/><circle class="cls-4" cx="140.01" cy="6.32" r="6.32"/><circle class="cls-4" cx="140.01" cy="60.32" r="6.32"/><rect class="cls-5" x="69.35" y="52.75" width="54" height="12.63" transform="translate(83.69 160.58) rotate(-120)"/><circle class="cls-5" cx="73.16" cy="24.23" r="6.32"/><circle class="cls-5" cx="100.16" cy="70.99" r="6.32"/><rect class="cls-6" x="30.29" y="91.8" width="54" height="12.63" transform="translate(48.17 200.28) rotate(-150)"/><circle class="cls-6" cx="24.23" cy="73.16" r="6.32"/><circle class="cls-6" cx="70.99" cy="100.16" r="6.32"/><rect class="cls-7" x="16" y="145.15" width="54" height="12.63" transform="translate(76.31 291.48) rotate(-180)"/><circle class="cls-7" cx="6.32" cy="140.01" r="6.32"/><circle class="cls-7" cx="60.32" cy="140.01" r="6.32"/><rect class="cls-8" x="30.29" y="198.5" width="54" height="12.63" transform="translate(199.64 342.09) rotate(150)"/><circle class="cls-8" cx="24.23" cy="206.86" r="6.32"/><circle class="cls-8" cx="70.99" cy="179.86" r="6.32"/><rect class="cls-9" x="69.35" y="237.55" width="54" height="12.63" transform="matrix(-0.5, 0.87, -0.87, -0.5, 346.03, 270.91)"/><circle class="cls-9" cx="73.16" cy="255.8" r="6.32"/><circle class="cls-9" cx="100.16" cy="209.03" r="6.32"/><rect class="cls-10" x="122.69" y="251.85" width="54" height="12.63" transform="translate(398.18 97.02) rotate(90)"/><circle class="cls-10" cx="140.01" cy="273.71" r="6.32"/><circle class="cls-10" cx="140.01" cy="219.71" r="6.32"/><rect class="cls-11" x="176.04" y="237.55" width="54" height="12.63" transform="translate(303.04 -65.36) rotate(60)"/><circle class="cls-11" cx="206.86" cy="255.8" r="6.32"/><circle class="cls-11" cx="179.86" cy="209.03" r="6.32"/><rect class="cls-12" x="215.1" y="198.5" width="54" height="12.63" transform="translate(125.16 -105.06) rotate(30)"/><circle class="cls-12" cx="255.8" cy="206.86" r="6.32"/><circle class="cls-12" cx="209.03" cy="179.86" r="6.32"/></g></svg>