<?xml version="1.0" encoding="UTF-8"?>
<svg xmlns:xlink="http://www.w3.org/1999/xlink"
     height="24px"
     version="1.1"
     viewBox="0 0 24 24"
     width="24px"
     xmlns="http://www.w3.org/2000/svg">
    <!-- Generator: Sketch 63.1 (92452) - https://sketch.com -->
    <title>ic_default_blue</title>
    <desc>Created with Sketch.</desc>
    <defs>
        <path
            d="M12,1 C18.0751322,1 23,5.92486775 23,12 C23,18.0751322 18.0751322,23 12,23 C5.92486775,23 1,18.0751322 1,12 C1,5.92486775 5.92486775,1 12,1 Z M18.1871843,8.71966991 C17.8942911,8.4267767 17.4194174,8.4267767 17.1265242,8.71966991 L17.1265242,8.71966991 L11.5303301,14.315864 L11.4982689,14.3461246 C11.2037494,14.6083836 10.7521027,14.5982967 10.4696699,14.315864 L10.4696699,14.315864 L7.37347584,11.2196699 L7.34141465,11.1894093 C7.04689518,10.9271503 6.59524841,10.9372372 6.31281566,11.2196699 C6.17968238,11.3528032 6.10706423,11.5235358 6.0949612,11.6976864 L6.0949612,11.6976864 L6.0949612,11.8023136 L6.10948484,11.9061203 C6.1385321,12.0432533 6.20630904,12.1738235 6.31281566,12.2803301 L6.31281566,12.2803301 L9.76256313,15.7300776 L9.80582194,15.7719013 C10.4919646,16.4131984 11.5682572,16.3992572 12.2374369,15.7300776 L12.2374369,15.7300776 L18.1871843,9.78033009 L18.217445,9.7482689 C18.479704,9.45374943 18.4696171,9.00210266 18.1871843,8.71966991 Z"
            id="path-1"/>
    </defs>
    <g
        fill="none"
        fill-rule="evenodd"
        id="ic_default_blue"
        stroke="none"
        stroke-width="1">
        <mask
            fill="white"
            id="mask-2">
            <use xlink:href="#path-1"/>
        </mask>
        <use
            fill="#007DFB"
            fill-rule="nonzero"
            id="path"
            xlink:href="#path-1"/>
    </g>
</svg>